<svg width="187" height="62" viewBox="0 0 187 62" fill="none" xmlns="http://www.w3.org/2000/svg">
<path d="M39.0092 31.3721V10.4759H45.3352V31.2707C45.3352 33.811 44.8902 35.8242 44.0001 37.3105C42.494 39.8238 39.776 41.0804 35.8462 41.0804C31.9164 41.0804 29.2806 40.067 27.9387 38.0402C26.5968 35.9999 25.9259 33.2232 25.9259 29.7101V29.021H31.9027V29.7101C31.9575 32.0206 32.2108 33.6488 32.6627 34.5947C33.1282 35.527 34.1141 35.9931 35.6203 35.9931C37.1128 35.9931 38.0986 35.4797 38.5779 34.4528C38.8654 33.8447 39.0092 32.8178 39.0092 31.3721Z" fill="white"/>
<path d="M69.3452 34.2096H58.1925L56.0976 40.3507H49.484L60.2875 10.4759H67.4351L78.1564 40.3507H71.2964L69.3452 34.2096ZM67.5788 29.0615L63.7997 17.3062L59.8973 29.0615H67.5788Z" fill="white"/>
<path d="M100.071 40.3507V27.0145H88.241V40.3507H81.9766V10.4759H88.241V21.8665H100.071V10.4759H106.356V40.3507H100.071Z" fill="white"/>
<path d="M130.14 34.2096H118.988L116.893 40.3507H110.279L121.083 10.4759H128.23L138.952 40.3507H132.092L130.14 34.2096ZM128.374 29.0615L124.595 17.3062L120.693 29.0615H128.374Z" fill="white"/>
<path d="M161.688 10.4759V15.7658H152.631V40.3507H146.263V15.7658H137.165V10.4759H161.688Z" fill="white"/>
<path d="M7.15083 55.1252C6.96681 54.3296 6.62504 53.7632 6.12553 53.4259C5.62602 53.0886 4.97316 52.92 4.16694 52.92C3.59733 52.92 3.10658 53.0324 2.69471 53.2573C2.28283 53.4821 1.94107 53.7848 1.6694 54.1653C1.40651 54.5458 1.20933 54.9868 1.07788 55.4884C0.955197 55.9813 0.893854 56.5045 0.893854 57.0579C0.893854 57.5768 0.946434 58.087 1.05159 58.5885C1.16552 59.0901 1.34954 59.5398 1.60368 59.9375C1.85782 60.3267 2.19958 60.6423 2.62898 60.8845C3.05838 61.1266 3.59733 61.2477 4.24581 61.2477C4.64892 61.2477 5.01698 61.1828 5.34998 61.0531C5.68299 60.9234 5.97217 60.7461 6.21755 60.5213C6.47168 60.2878 6.682 60.0154 6.8485 59.7041C7.02377 59.3927 7.15522 59.0512 7.24285 58.6793H8.17614C8.07098 59.129 7.91762 59.5571 7.71607 59.9635C7.51451 60.3613 7.24723 60.7115 6.91423 61.0142C6.58998 61.3168 6.19126 61.559 5.71804 61.7406C5.25358 61.9135 4.70588 62 4.07492 62C3.34757 62 2.72538 61.8703 2.20835 61.6109C1.69131 61.3428 1.26629 60.9839 0.933289 60.5342C0.609048 60.0846 0.372439 59.5657 0.223464 58.9777C0.0744879 58.381 0 57.7497 0 57.0838C0 56.1931 0.109541 55.4365 0.328623 54.8138C0.556468 54.1912 0.867565 53.6853 1.26191 53.2962C1.65626 52.8984 2.12071 52.613 2.65527 52.4401C3.18983 52.2585 3.77259 52.1677 4.40355 52.1677C4.88553 52.1677 5.33246 52.2325 5.74433 52.3622C6.16497 52.4833 6.53302 52.6692 6.8485 52.92C7.17274 53.1708 7.43564 53.4821 7.6372 53.854C7.84752 54.2172 7.99211 54.6409 8.07098 55.1252H7.15083Z" fill="white"/>
<path d="M13.5876 56.7596C13.9206 56.7596 14.2274 56.725 14.5078 56.6558C14.797 56.5866 15.0467 56.4785 15.257 56.3315C15.4674 56.1758 15.6339 55.9813 15.7565 55.7478C15.8792 55.5143 15.9406 55.2333 15.9406 54.9046C15.9406 54.5587 15.8748 54.2734 15.7434 54.0485C15.6207 53.8237 15.4498 53.6464 15.2307 53.5167C15.0204 53.387 14.7751 53.2962 14.4946 53.2443C14.223 53.1924 13.9382 53.1665 13.6402 53.1665H10.8009V56.7596H13.5876ZM10.8009 57.5119V61.7536H9.90706V52.4141H13.6139C14.6568 52.4141 15.4542 52.6087 16.0063 52.9978C16.5584 53.3783 16.8344 54.001 16.8344 54.8657C16.8344 55.4538 16.7117 55.9207 16.4664 56.2666C16.2298 56.6125 15.8398 56.9066 15.2965 57.1487C15.5769 57.2438 15.796 57.3822 15.9537 57.5638C16.1115 57.7454 16.2298 57.9529 16.3086 58.1864C16.3875 58.4199 16.4357 58.6664 16.4532 58.9258C16.4795 59.1852 16.497 59.436 16.5058 59.6781C16.5146 60.0327 16.5277 60.3267 16.5452 60.5602C16.5715 60.7937 16.5978 60.9839 16.6241 61.1309C16.6592 61.2779 16.6986 61.3947 16.7424 61.4812C16.7862 61.559 16.8388 61.6195 16.9002 61.6628V61.7536H15.9143C15.8179 61.5979 15.7478 61.3817 15.704 61.105C15.6689 60.8283 15.6382 60.5386 15.6119 60.2359C15.5944 59.9332 15.5769 59.6392 15.5594 59.3538C15.5506 59.0685 15.5287 58.835 15.4936 58.6534C15.4411 58.4026 15.3534 58.2037 15.2307 58.0567C15.1168 57.901 14.9766 57.7843 14.8101 57.7065C14.6436 57.6286 14.4552 57.5768 14.2449 57.5508C14.0433 57.5249 13.833 57.5119 13.6139 57.5119H10.8009Z" fill="white"/>
<path d="M18.6878 61.7536V52.4141H24.9842V53.1665H19.5816V56.539H24.4584V57.2914H19.5816V61.0012H25.1156V61.7536H18.6878Z" fill="white"/>
<path d="M25.8561 61.7536L29.5761 52.4141H30.5882L34.2162 61.7536H33.2961L32.205 58.822H27.8935L26.7762 61.7536H25.8561ZM28.1958 58.0697H31.9027L30.0493 53.1665L28.1958 58.0697Z" fill="white"/>
<path d="M33.4301 52.4141H40.318V53.1665H37.321V61.7536H36.4271V53.1665H33.4301V52.4141Z" fill="white"/>
<path d="M41.9041 61.7536V52.4141H42.798V61.7536H41.9041Z" fill="white"/>
<path d="M44.419 52.4141H45.3523L48.2048 60.7158L51.0441 52.4141H51.9774L48.6911 61.7536H47.7053L44.419 52.4141Z" fill="white"/>
<path d="M53.283 61.7536V52.4141H59.5794V53.1665H54.1769V56.539H59.0536V57.2914H54.1769V61.0012H59.7109V61.7536H53.283Z" fill="white"/>
<path d="M75.3529 55.1252C75.1689 54.3296 74.8271 53.7632 74.3276 53.4259C73.8281 53.0886 73.1753 52.92 72.369 52.92C71.7994 52.92 71.3087 53.0324 70.8968 53.2573C70.4849 53.4821 70.1432 53.7848 69.8715 54.1653C69.6086 54.5458 69.4114 54.9868 69.28 55.4884C69.1573 55.9813 69.0959 56.5045 69.0959 57.0579C69.0959 57.5768 69.1485 58.087 69.2537 58.5885C69.3676 59.0901 69.5516 59.5398 69.8058 59.9375C70.0599 60.3267 70.4017 60.6423 70.8311 60.8845C71.2605 61.1266 71.7994 61.2477 72.4479 61.2477C72.851 61.2477 73.2191 61.1828 73.5521 61.0531C73.8851 60.9234 74.1743 60.7461 74.4196 60.5213C74.6738 60.2878 74.8841 60.0154 75.0506 59.7041C75.2259 59.3927 75.3573 59.0512 75.4449 58.6793H76.3782C76.2731 59.129 76.1197 59.5571 75.9182 59.9635C75.7166 60.3613 75.4493 60.7115 75.1163 61.0142C74.7921 61.3168 74.3933 61.559 73.9201 61.7406C73.4557 61.9135 72.908 62 72.277 62C71.5497 62 70.9275 61.8703 70.4104 61.6109C69.8934 61.3428 69.4684 60.9839 69.1354 60.5342C68.8111 60.0846 68.5745 59.5657 68.4256 58.9777C68.2766 58.381 68.2021 57.7497 68.2021 57.0838C68.2021 56.1931 68.3116 55.4365 68.5307 54.8138C68.7586 54.1912 69.0697 53.6853 69.464 53.2962C69.8584 52.8984 70.3228 52.613 70.8574 52.4401C71.3919 52.2585 71.9747 52.1677 72.6056 52.1677C73.0876 52.1677 73.5345 52.2325 73.9464 52.3622C74.3671 52.4833 74.7351 52.6692 75.0506 52.92C75.3748 53.1708 75.6377 53.4821 75.8393 53.854C76.0496 54.2172 76.1942 54.6409 76.2731 55.1252H75.3529Z" fill="white"/>
<path d="M77.7542 57.0968C77.7542 56.4137 77.8462 55.7737 78.0303 55.177C78.2231 54.5804 78.5035 54.0615 78.8716 53.6205C79.2396 53.1708 79.6953 52.8162 80.2386 52.5568C80.7819 52.2974 81.4085 52.1677 82.1183 52.1677C82.8545 52.1677 83.4986 52.2974 84.0507 52.5568C84.6115 52.8076 85.076 53.1578 85.444 53.6075C85.8208 54.0485 86.1013 54.5717 86.2853 55.177C86.4781 55.7737 86.5745 56.4137 86.5745 57.0968C86.5745 57.7713 86.4781 58.4069 86.2853 59.0036C86.1013 59.5916 85.8252 60.1105 85.4572 60.5602C85.0891 61.0012 84.629 61.3514 84.0769 61.6109C83.5249 61.8703 82.8851 62 82.1578 62C81.4304 62 80.7907 61.8703 80.2386 61.6109C79.6865 61.3514 79.2265 61.0012 78.8584 60.5602C78.4903 60.1105 78.2143 59.5916 78.0303 59.0036C77.8462 58.4069 77.7542 57.7713 77.7542 57.0968ZM82.1709 61.2477C82.7844 61.2477 83.3102 61.1352 83.7483 60.9104C84.1952 60.6769 84.5589 60.3699 84.8393 59.9894C85.1285 59.6089 85.3389 59.1679 85.4703 58.6664C85.6105 58.1648 85.6806 57.6416 85.6806 57.0968C85.6806 56.4482 85.5974 55.8689 85.4309 55.3586C85.2731 54.8398 85.0409 54.3988 84.7342 54.0356C84.4275 53.6724 84.055 53.3956 83.6169 53.2054C83.1787 53.0151 82.688 52.92 82.1446 52.92C81.54 52.92 81.0142 53.0368 80.5672 53.2702C80.1291 53.5037 79.7654 53.815 79.4762 54.2042C79.1958 54.5847 78.9855 55.0257 78.8453 55.5273C78.7138 56.0288 78.6481 56.552 78.6481 57.0968C78.6481 57.6503 78.7138 58.1778 78.8453 58.6793C78.9855 59.1809 79.1958 59.6219 79.4762 60.0024C79.7654 60.3829 80.1291 60.6856 80.5672 60.9104C81.0142 61.1352 81.5487 61.2477 82.1709 61.2477Z" fill="white"/>
<path d="M88.3138 61.7536V52.4141H89.6809L92.7831 60.651H92.8094L95.859 52.4141H97.2129V61.7536H96.3191V53.4259H96.2928L93.1906 61.7536H92.3493L89.234 53.4259H89.2077V61.7536H88.3138Z" fill="white"/>
<path d="M99.2636 61.7536V52.4141H100.631L103.733 60.651H103.759L106.809 52.4141H108.163V61.7536H107.269V53.4259H107.243L104.14 61.7536H103.299L100.184 53.4259H100.157V61.7536H99.2636Z" fill="white"/>
<path d="M110.266 52.4141H111.16V57.9789C111.16 59.1376 111.379 59.9721 111.817 60.4824C112.255 60.9926 112.961 61.2477 113.933 61.2477C114.442 61.2477 114.871 61.1828 115.222 61.0531C115.581 60.9147 115.87 60.7115 116.089 60.4434C116.308 60.1667 116.466 59.8251 116.562 59.4187C116.659 59.0123 116.707 58.5323 116.707 57.9789V52.4141H117.601V58.2383C117.601 59.4576 117.294 60.3916 116.681 61.0401C116.076 61.68 115.16 62 113.933 62C112.698 62 111.778 61.6714 111.173 61.0142C110.568 60.357 110.266 59.4317 110.266 58.2383V52.4141Z" fill="white"/>
<path d="M120.633 53.6075H120.607V61.7536H119.713V52.4141H120.725L126.193 60.5732H126.22V52.4141H127.114V61.7536H126.075L120.633 53.6075Z" fill="white"/>
<path d="M129.541 61.7536V52.4141H130.435V61.7536H129.541Z" fill="white"/>
<path d="M139.601 55.1252C139.417 54.3296 139.075 53.7632 138.576 53.4259C138.076 53.0886 137.424 52.92 136.617 52.92C136.048 52.92 135.557 53.0324 135.145 53.2573C134.733 53.4821 134.392 53.7848 134.12 54.1653C133.857 54.5458 133.66 54.9868 133.528 55.4884C133.406 55.9813 133.344 56.5045 133.344 57.0579C133.344 57.5768 133.397 58.087 133.502 58.5885C133.616 59.0901 133.8 59.5398 134.054 59.9375C134.308 60.3267 134.65 60.6423 135.079 60.8845C135.509 61.1266 136.048 61.2477 136.696 61.2477C137.099 61.2477 137.467 61.1828 137.8 61.0531C138.133 60.9234 138.423 60.7461 138.668 60.5213C138.922 60.2878 139.132 60.0154 139.299 59.7041C139.474 59.3927 139.606 59.0512 139.693 58.6793H140.627C140.521 59.129 140.368 59.5571 140.167 59.9635C139.965 60.3613 139.698 60.7115 139.365 61.0142C139.04 61.3168 138.642 61.559 138.168 61.7406C137.704 61.9135 137.156 62 136.525 62C135.798 62 135.176 61.8703 134.659 61.6109C134.142 61.3428 133.717 60.9839 133.384 60.5342C133.059 60.0846 132.823 59.5657 132.674 58.9777C132.525 58.381 132.45 57.7497 132.45 57.0838C132.45 56.1931 132.56 55.4365 132.779 54.8138C133.007 54.1912 133.318 53.6853 133.712 53.2962C134.107 52.8984 134.571 52.613 135.106 52.4401C135.64 52.2585 136.223 52.1677 136.854 52.1677C137.336 52.1677 137.783 52.2325 138.195 52.3622C138.615 52.4833 138.983 52.6692 139.299 52.92C139.623 53.1708 139.886 53.4821 140.088 53.854C140.298 54.2172 140.443 54.6409 140.521 55.1252H139.601Z" fill="white"/>
<path d="M141.503 61.7536L145.223 52.4141H146.235L149.863 61.7536H148.943L147.852 58.822H143.541L142.423 61.7536H141.503ZM143.843 58.0697H147.55L145.696 53.1665L143.843 58.0697Z" fill="white"/>
<path d="M149.077 52.4141H155.965V53.1665H152.968V61.7536H152.074V53.1665H149.077V52.4141Z" fill="white"/>
<path d="M157.551 61.7536V52.4141H158.445V61.7536H157.551Z" fill="white"/>
<path d="M160.526 57.0968C160.526 56.4137 160.618 55.7737 160.802 55.177C160.995 54.5804 161.275 54.0615 161.643 53.6205C162.012 53.1708 162.467 52.8162 163.011 52.5568C163.554 52.2974 164.18 52.1677 164.89 52.1677C165.626 52.1677 166.27 52.2974 166.823 52.5568C167.383 52.8076 167.848 53.1578 168.216 53.6075C168.593 54.0485 168.873 54.5717 169.057 55.177C169.25 55.7737 169.346 56.4137 169.346 57.0968C169.346 57.7713 169.25 58.4069 169.057 59.0036C168.873 59.5916 168.597 60.1105 168.229 60.5602C167.861 61.0012 167.401 61.3514 166.849 61.6109C166.297 61.8703 165.657 62 164.93 62C164.202 62 163.563 61.8703 163.011 61.6109C162.458 61.3514 161.998 61.0012 161.63 60.5602C161.262 60.1105 160.986 59.5916 160.802 59.0036C160.618 58.4069 160.526 57.7713 160.526 57.0968ZM164.943 61.2477C165.556 61.2477 166.082 61.1352 166.52 60.9104C166.967 60.6769 167.331 60.3699 167.611 59.9894C167.9 59.6089 168.111 59.1679 168.242 58.6664C168.382 58.1648 168.453 57.6416 168.453 57.0968C168.453 56.4482 168.369 55.8689 168.203 55.3586C168.045 54.8398 167.813 54.3988 167.506 54.0356C167.199 53.6724 166.827 53.3956 166.389 53.2054C165.951 53.0151 165.46 52.92 164.917 52.92C164.312 52.92 163.786 53.0368 163.339 53.2702C162.901 53.5037 162.537 53.815 162.248 54.2042C161.968 54.5847 161.757 55.0257 161.617 55.5273C161.486 56.0288 161.42 56.552 161.42 57.0968C161.42 57.6503 161.486 58.1778 161.617 58.6793C161.757 59.1809 161.968 59.6219 162.248 60.0024C162.537 60.3829 162.901 60.6856 163.339 60.9104C163.786 61.1352 164.321 61.2477 164.943 61.2477Z" fill="white"/>
<path d="M172.019 53.6075H171.993V61.7536H171.099V52.4141H172.111L177.579 60.5732H177.606V52.4141H178.499V61.7536H177.461L172.019 53.6075Z" fill="white"/>
<path d="M180.98 58.9647C181.015 59.3798 181.107 59.7343 181.256 60.0284C181.413 60.3137 181.611 60.5472 181.847 60.7288C182.093 60.9104 182.373 61.0444 182.688 61.1309C183.004 61.2088 183.341 61.2477 183.701 61.2477C184.121 61.2477 184.485 61.1958 184.792 61.092C185.098 60.9882 185.348 60.8499 185.541 60.6769C185.734 60.4953 185.874 60.2878 185.962 60.0543C186.058 59.8208 186.106 59.5743 186.106 59.3149C186.106 58.9517 186.023 58.6577 185.856 58.4329C185.69 58.208 185.471 58.0264 185.199 57.8881C184.936 57.7411 184.63 57.6243 184.279 57.5378C183.937 57.4514 183.582 57.3692 183.214 57.2914C182.855 57.2049 182.5 57.1055 182.15 56.993C181.808 56.8806 181.501 56.7293 181.229 56.539C180.966 56.3488 180.752 56.1067 180.585 55.8126C180.419 55.51 180.336 55.1295 180.336 54.6712C180.336 54.3512 180.401 54.0399 180.533 53.7372C180.673 53.4345 180.874 53.1665 181.137 52.933C181.409 52.6995 181.746 52.5136 182.15 52.3752C182.553 52.2369 183.017 52.1677 183.543 52.1677C184.077 52.1677 184.542 52.2412 184.936 52.3882C185.339 52.5352 185.672 52.7384 185.935 52.9978C186.198 53.2486 186.395 53.5426 186.527 53.8799C186.658 54.2172 186.724 54.576 186.724 54.9565H185.87C185.87 54.602 185.804 54.295 185.672 54.0356C185.55 53.7761 185.379 53.5643 185.16 53.4C184.941 53.2357 184.691 53.1146 184.41 53.0368C184.13 52.9589 183.841 52.92 183.543 52.92C183.087 52.92 182.702 52.9849 182.386 53.1146C182.079 53.2357 181.834 53.3956 181.65 53.5945C181.466 53.7934 181.339 54.0139 181.269 54.2561C181.199 54.4982 181.186 54.7403 181.229 54.9825C181.282 55.2851 181.405 55.5273 181.597 55.7089C181.79 55.8905 182.027 56.0418 182.307 56.1629C182.588 56.2753 182.894 56.3704 183.227 56.4482C183.569 56.5174 183.915 56.5953 184.266 56.6817C184.616 56.7596 184.954 56.8547 185.278 56.9671C185.611 57.0795 185.905 57.2309 186.159 57.4211C186.413 57.6113 186.614 57.8578 186.763 58.1605C186.921 58.4545 187 58.8263 187 59.276C187 60.1408 186.698 60.811 186.093 61.2866C185.488 61.7622 184.638 62 183.543 62C183.052 62 182.596 61.9352 182.176 61.8054C181.755 61.6844 181.391 61.4984 181.085 61.2477C180.778 60.9882 180.537 60.6726 180.362 60.3008C180.195 59.9203 180.112 59.4749 180.112 58.9647H180.98Z" fill="white"/>
<path d="M170.795 0.752443C169.455 0.752443 168.309 1.22367 167.36 2.16612C166.415 3.10351 165.942 4.23598 165.942 5.56352C165.942 6.9012 166.412 8.04126 167.352 8.98372C168.297 9.92617 169.444 10.3974 170.795 10.3974C172.145 10.3974 173.293 9.92617 174.238 8.98372C175.182 8.04126 175.655 6.9012 175.655 5.56352C175.655 4.23598 175.182 3.10351 174.238 2.16612C173.288 1.22367 172.14 0.752443 170.795 0.752443ZM176.456 5.56352C176.456 7.10894 175.904 8.42888 174.8 9.52335C173.696 10.6178 172.361 11.165 170.795 11.165C169.229 11.165 167.896 10.6178 166.797 9.52335C165.704 8.43395 165.157 7.11401 165.157 5.56352C165.157 4.02823 165.709 2.71589 166.813 1.62649C167.912 0.542165 169.239 0 170.795 0C172.361 0 173.696 0.542165 174.8 1.62649C175.904 2.71082 176.456 4.02316 176.456 5.56352ZM172.273 4.34745C172.273 3.90156 172.135 3.60261 171.858 3.4506C171.585 3.29859 171.146 3.22259 170.541 3.22259H169.609V5.44191H170.594C171.057 5.44191 171.403 5.39631 171.634 5.3051C172.06 5.1379 172.273 4.81868 172.273 4.34745ZM170.687 2.48534C171.457 2.48534 172.022 2.55881 172.381 2.70576C173.023 2.96924 173.344 3.48607 173.344 4.25624C173.344 4.80348 173.141 5.2063 172.736 5.46471C172.52 5.60152 172.22 5.70033 171.834 5.76113C172.322 5.83714 172.679 6.03728 172.905 6.36157C173.131 6.68585 173.244 7.00254 173.244 7.31162V7.76005C173.244 7.90192 173.249 8.05393 173.259 8.21607C173.27 8.37821 173.288 8.48462 173.313 8.53529L173.352 8.61129H172.327C172.322 8.59103 172.317 8.57076 172.312 8.55049C172.307 8.53022 172.302 8.50742 172.297 8.48209L172.273 8.28448V7.79805C172.273 7.08867 172.078 6.61998 171.688 6.39197C171.457 6.26023 171.051 6.19436 170.471 6.19436H169.609V8.61129H168.515V2.48534H170.687Z" fill="white"/>
</svg>
